<svg xmlns="http://www.w3.org/2000/svg" xmlns:xlink="http://www.w3.org/1999/xlink" version="1.1" x="0px" y="0px" viewBox="0 0 48 48" enable-background="new 0 0 48 48" xml:space="preserve"><g><path d="M46,7h-4V4c0-0.6-0.4-1-1-1h-4c-0.6,0-1,0.4-1,1v3h-4V4c0-0.6-0.4-1-1-1h-4c-0.6,0-1,0.4-1,1v3h-4V4c0-0.6-0.4-1-1-1h-4   c-0.6,0-1,0.4-1,1v3h-4V4c0-0.6-0.4-1-1-1H7C6.4,3,6,3.4,6,4v3H2C1.4,7,1,7.4,1,8v8v28c0,0.6,0.4,1,1,1h44c0.6,0,1-0.4,1-1V16V8   C47,7.4,46.6,7,46,7z M23,17v7H13v-7H23z M35,17v7H25v-7H35z M45,17v7h-8v-7H45z M11,24H3v-7h8V24z M3,26h8v8H3V26z M13,26h10v8H13   V26z M23,36v7H13v-7H23z M25,36h10v7H25V36z M25,34v-8h10v8H25z M37,26h8v8h-8V26z M38,5h2v6h-2V5z M28,5h2v6h-2V5z M18,5h2v6h-2V5   z M8,5h2v6H8V5z M6,9v3c0,0.6,0.4,1,1,1h4c0.6,0,1-0.4,1-1V9h4v3c0,0.6,0.4,1,1,1h4c0.6,0,1-0.4,1-1V9h4v3c0,0.6,0.4,1,1,1h4   c0.6,0,1-0.4,1-1V9h4v3c0,0.6,0.4,1,1,1h4c0.6,0,1-0.4,1-1V9h3v6H3V9H6z M3,36h8v7H3V36z M37,43v-7h8v7H37z"/></g></svg>