<svg xmlns="http://www.w3.org/2000/svg" xmlns:xlink="http://www.w3.org/1999/xlink" version="1.1" x="0px" y="0px" viewBox="0 0 1024 1024" style="enable-background:new 0 0 1024 1024;" xml:space="preserve"><g><g><g><path d="M127.9,290.9c6.8,0,13.7,0,20.5,0c18.6,0,37.2,0,55.8,0c27.5,0,55.1,0,82.6,0c33.6,0,67.2,0,100.8,0     c37,0,73.9,0,110.9,0c37.2,0,74.3,0,111.5,0c34.6,0,69.3,0,103.9,0c29.3,0,58.5,0,87.8,0c21.1,0,42.1,0,63.2,0     c10,0,20,0.1,29.9,0c0.4,0,0.9,0,1.3,0c20.9,0,41-18.4,40-40c-1-21.7-17.6-40-40-40c-6.8,0-13.7,0-20.5,0c-18.6,0-37.2,0-55.8,0     c-27.5,0-55.1,0-82.6,0c-33.6,0-67.2,0-100.8,0c-37,0-73.9,0-110.9,0c-37.2,0-74.3,0-111.5,0c-34.6,0-69.3,0-103.9,0     c-29.3,0-58.5,0-87.8,0c-21.1,0-42.1,0-63.2,0c-10,0-20-0.1-29.9,0c-0.4,0-0.9,0-1.3,0c-20.9,0-41,18.4-40,40     C88.9,272.6,105.5,290.9,127.9,290.9L127.9,290.9z"/></g></g><g><g><path d="M127.9,552.4c18.9,0,37.9,0,56.8,0c45.1,0,90.2,0,135.4,0c54.9,0,109.8,0,164.6,0c47.1,0,94.3,0,141.4,0     c23,0,46,0.3,69,0c0.3,0,0.6,0,1,0c20.9,0,41-18.4,40-40c-1-21.7-17.6-40-40-40c-18.9,0-37.9,0-56.8,0c-45.1,0-90.2,0-135.4,0     c-54.9,0-109.8,0-164.6,0c-47.1,0-94.3,0-141.4,0c-23,0-46-0.3-69,0c-0.3,0-0.6,0-1,0c-20.9,0-41,18.4-40,40     C88.9,534.1,105.5,552.4,127.9,552.4L127.9,552.4z"/></g></g><g><g><path d="M127.9,813.9c12.2,0,24.4,0,36.6,0c29.3,0,58.7,0,88,0c35.5,0,71,0,106.4,0c30.5,0,61.1,0,91.6,0     c14.9,0,29.9,0.3,44.9,0c0.2,0,0.4,0,0.6,0c20.9,0,41-18.4,40-40c-1-21.7-17.6-40-40-40c-12.2,0-24.4,0-36.6,0     c-29.3,0-58.7,0-88,0c-35.5,0-71,0-106.4,0c-30.5,0-61.1,0-91.6,0c-14.9,0-29.9-0.3-44.9,0c-0.2,0-0.4,0-0.6,0     c-20.9,0-41,18.4-40,40C88.9,795.6,105.5,813.9,127.9,813.9L127.9,813.9z"/></g></g></g></svg>